<svg xmlns="http://www.w3.org/2000/svg" viewBox="0 0 400 400"><defs><style>.cls-1{fill:#e6e6e6;}.cls-2{fill:#fff;}.cls-3{fill:#ccc;}.cls-4{fill:#f2f2f2;}.cls-5{fill:#b3b3b3;}.cls-6{fill:none;stroke:#fff;stroke-miterlimit:10;stroke-width:0.75px;}</style></defs><title>Empty State</title><g id="Camada_2" data-name="Camada 2"><g id="Empty_bookshelf" data-name="Empty bookshelf"><circle class="cls-1" cx="200" cy="200" r="200"/><path class="cls-2" d="M335.85,72.28V327.72H64.15V72.28ZM324.7,319.35V209.48H77.53V319.35Zm0-117.68v-116H77.53v116H324.7Z"/><polygon class="cls-3" points="324.7 318.79 324.7 319.35 77.53 319.35 77.53 318.79 127.73 306.52 272.27 306.52 324.7 318.79"/><polygon class="cls-4" points="324.7 209.48 324.7 318.79 272.27 306.52 272.27 222.87 324.7 209.48"/><polygon class="cls-4" points="324.7 85.67 324.7 201.67 272.27 201.67 272.27 123.59 324.7 85.67"/><polygon class="cls-3" points="324.7 85.67 272.27 123.59 127.73 123.59 77.53 85.67 324.7 85.67"/><polygon class="cls-3" points="324.7 209.48 272.27 222.87 127.73 222.87 77.53 209.48 324.7 209.48"/><rect class="cls-1" x="127.73" y="222.87" width="144.55" height="83.66"/><rect class="cls-1" x="127.73" y="123.59" width="144.55" height="78.08"/><polygon class="cls-5" points="127.73 222.87 127.73 306.52 77.53 318.79 77.53 209.48 127.73 222.87"/><polygon class="cls-5" points="127.73 123.59 127.73 201.67 77.53 201.67 77.53 85.67 127.73 123.59"/><path class="cls-6" d="M77.53,283.1s8.93-15.62,19-1.12c0,0,2.23-17.84,17.84-7.8,0,0-2.23-17.85,15.62-11.16,0,0-8.93-17.85,12.27-15.61,0,0-13.39-14.5,7.81-17.85,0,0-16.74-10,1.11-20.08H77.53Z"/><path class="cls-6" d="M77.53,263.77c4.46-8.18,13.39-1.86,13.39-1.86s3.34-8.93,13.38-5.58c0,0,1.12-8.92,11.16-7.81,0,0-1.12-10,8.92-11.15,0,0-4.46-12.27,4.46-13.39,0,0-8.19-7.81,2.6-14.5"/><path class="cls-6" d="M77.53,245.87s5.58-6.27,8.93-.7c0,0,2.23-6.69,8.92-4.46,0,0,2.23-5.57,7.81-4.46,0,0-1.12-6.69,4.46-7.81,0,0-1.12-6.69,4.46-8.92,0,0-5-5.58,1.39-10"/><path class="cls-6" d="M77.53,231.79a5.62,5.62,0,0,1,5.58-1.12s2.23-3.34,5.58-1.11c0,0,0-4.46,4.46-3.35,0,0-1.12-4.46,3.35-4.46,0,0-2.24-4.46,2.23-5.58,0,0-2.9-3.34.78-6.69"/><path class="cls-6" d="M77.53,215.35s5.58-.29,4.46-5.87"/><line class="cls-6" x1="79.05" y1="215.08" x2="96.5" y2="281.98"/><line class="cls-6" x1="80.28" y1="214.59" x2="114.34" y2="274.18"/><line class="cls-6" x1="81.24" y1="213.9" x2="129.96" y2="263.02"/><line class="cls-6" x1="81.89" y1="212.98" x2="142.23" y2="247.41"/><line class="cls-6" x1="82.14" y1="211.7" x2="150.04" y2="229.56"/></g></g></svg>