<svg xmlns="http://www.w3.org/2000/svg" viewBox="0 0 146.69 135.12">
  <g id="Camada_2" data-name="Camada 2">
      <g id="Camada_1-2" data-name="Camada 1">
        <path d="M71,119.51c-2.25,2.88-4.78,6.91-4,10.73a6.06,6.06,0,0,0,7.85,4.55c8.9-3.13,2.74-13.78-2.08-17.84-9.55-8-22.81-10.27-34.92-9.84-7.6.27-15.19.7-22.8,1-2.1.07-4.57.48-6.67.16-5.08-.78-3.25-11-3.22-14.92.06-10.56,0-21.13,0-31.7q0-16.73-.11-33.43c0-6-.8-12.53-.08-18.49.4-3.41,2.48-4.34,5.63-4.43,4.61-.13,9.25,0,13.86,0H55.62a15.29,15.29,0,0,1,7.47,1.61c4.12,2.12,5.65,5.7,6.92,9.9s2.84,8.09,4.12,12.18a45.48,45.48,0,0,1,2.38,14.81,21.42,21.42,0,0,1-1,6.7c-.51,1.43-2,2.75-2.41,4l.86-.09c1,.13,1.14-.12.3-.74a12.14,12.14,0,0,0-1-1.67A21.77,21.77,0,0,1,71,46.32a40,40,0,0,1-.26-14.64c1.19-8.09,5.46-18.35,11.8-23.91,4.73-4.14,14.06-2.48,20-2.48,11,0,22.12-.38,33.15,0,7.42.25,5.93,8.71,6,14.2.07,10.41.05,20.82,0,31.23,0,17.42-.43,34.86-.2,52.28,0,3.08-1.14,5.25-5.62,5.28s-9.05-.55-13.53-.77c-10.72-.52-22.17-1.29-32.67,1.36A39.1,39.1,0,0,0,71,119.51c-2.24,2.31,1.29,5.85,3.54,3.54,10.33-10.63,24.53-11.12,38.39-10.91,6.4.09,12.79.51,19.17.89,4.26.25,9.14.65,12.32-2.85a8.64,8.64,0,0,0,2.13-5.26,8.77,8.77,0,0,0-.06-2c0-2.17,0-4.35,0-6.52q.08-15.81.13-31.63.06-18.19,0-36.39c0-4.39,0-8.78-.08-13.18,0-3.15.22-6.72-1.17-9.62-3.52-7.3-14.1-5.3-20.65-5.3H102.52c-6,0-13.64-1.18-19.31,1.23C76.64,4.3,72.13,12.74,69.32,18.87a48.13,48.13,0,0,0-3.81,24.88c.44,4,2.57,14.18,7.7,15.37,4.57,1.06,7.12-6.78,7.76-9.9C82.86,40,80.12,30.66,77,22c-2.48-7-3.59-14.76-10.42-18.92C60-.93,51.9.25,44.52.25,33.23.25,21.93.14,10.64.25,3.58.31,0,4.57,0,11.34c-.09,20.79.19,41.59.2,62.38C.22,82.81.3,91.91.09,101c-.15,6.38,1.57,12,8.88,12.22,13.6.51,27.42-2.65,41-.57a42.38,42.38,0,0,1,17.77,6.68c2.47,1.72,8.52,7,6.65,10-1.14,1.85-2.55.68-2.4-1.14s2.15-4.6,2.59-5.16C76.49,120.54,73,117,71,119.51Z"/>
    </g>
  </g>
</svg>