<svg xmlns="http://www.w3.org/2000/svg" viewBox="0 0 129.47 135.6"><title>Icone arquivando</title><g id="Camada_2" data-name="Camada 2"><g id="Camada_1-2" data-name="Camada 1"><path d="M56.56,82.29,47.65,68.36c-2.15-3.35-9-11.33-1-12.16,5.71-.6,11.81,0,17.55,0H83.62c1.53,0,2.89-.22,4.29.49,3.41,1.72,1.39,4.41-.11,6.55l-11.17,16-5.71,8.18c-.56.79-2.74,5.09-3.74,5.36-.55.14.12.44-.13-.68A24.89,24.89,0,0,1,67,87.37L66,12.8c0-3.81.42-7.06,5.27-7.38s10,0,14.88,0h22.1c3.66,0,7.66-.46,11.3,0,5,.63,4.39,5,4.39,8.59V122.14c0,3.54.49,7.56-4.4,8.2-6.9.89-14.51,0-21.46,0H17.83a79.86,79.86,0,0,1-8,0c-4.16-.44-4.68-3.28-4.68-6.5V15.76a47.09,47.09,0,0,1,0-5.94c.83-6.51,11.9-4.4,16.45-4.4h15c3.27,0,3.27-5.08,0-5.08H18.19C12.37.34,4.8-.93,1.32,5-.31,7.81,0,11.13,0,14.22v104c0,7.79-.31,16.9,10.31,17.18,10.46.27,21,0,31.44,0H90.86c9.43,0,19,.41,28.39,0,11-.49,9.76-11.29,9.76-19.12V26.67c0-6.59,2.37-19.69-3.72-24.36-3.8-2.9-9.72-2-14.2-2h-24c-9,0-25.93-3.22-26.21,10.22-.54,26.13.7,52.41,1,78.55,0,3.51-.29,8.2,4.36,8.87s8-6.5,10.19-9.68L90,69c3-4.25,7.16-9,3.5-14.27-3.14-4.56-9.13-3.56-13.93-3.56H55.63c-4.38,0-11.33-1.2-15.09,1.71-6.41,5-1.45,11.56,1.73,16.54l9.91,15.48c1.75,2.75,6.15.2,4.38-2.56Z"/></g></g></svg>