<svg xmlns="http://www.w3.org/2000/svg" viewBox="0 0 135.91 136.06"><title>Icone adicionar</title><g id="Camada_2" data-name="Camada 2"><g id="Camada_1-2" data-name="Camada 1"><path d="M65.32,2.86V128.1c0,.52-.11,2.17.07,2,0,0-3.59-.59-3,.1-.19-.24,0-1.53,0-1.81.12-6.8,0-13.62,0-20.43,0-15.78.79-31.78,0-47.53-.29-5.68-4-6.65-8.87-6.65H28.23c-7.2,0-14.57-.48-21.75,0C3,54,.48,55.54.08,59.29c-.45,4.09,1,7.84,5.52,8.33,9.46,1,19.62,0,29.13,0H133c3.82,0,3.82-5.93,0-5.93H8.74c-.51,0-2.6.33-3,0,.64.51.12-2.07.09-2-.16.19.87.11,1.33.06,7.34-.79,15.2,0,22.58,0H54a8.31,8.31,0,0,1,2.44,0c.8.31-.32-.84,0-.05.54,1.39,0,4.08,0,5.56V116.7c0,4.44-.47,9.17,0,13.6.82,7.78,14.08,7.63,14.82-.15,1-10,0-20.62,0-30.69V2.86c0-3.81-5.93-3.82-5.93,0Z"/></g></g></svg>