<svg xmlns="http://www.w3.org/2000/svg" viewBox="0 0 128.38 135.94"><title>Icone lupa</title><g id="Camada_2" data-name="Camada 2"><g id="Camada_1-2" data-name="Camada 1"><path d="M5.14,135l36.5-38.85c5-5.3,9.81-10.83,15-16a13,13,0,0,1,1.63-1.51c1.35-1,4.33-2.29,5.75-.87,1.25,1.27-.46,2.43-1.79,2.58a6.59,6.59,0,0,1-3.81-1.29,26.55,26.55,0,0,1-5.66-4.77c-7.66-8-12.24-19-11.55-30.13a44.27,44.27,0,0,1,7.89-22.32c-.48.67,1.23-1.44,1.63-1.87a50,50,0,0,1,4.06-3.91,41.29,41.29,0,0,1,39-8.34c14.55,4.31,26,14.8,28.15,30.23,1.19,8.67.15,19.6-4.87,27.06-7.43,11.06-20.21,19.78-33.91,18-3.87-.5-3.83,5.57,0,6.07,15.43,2,29.27-7.67,38.12-19.57,5.34-7.19,7.12-17,7.1-25.79,0-16-8.17-30.1-22.43-37.58C90.19-2.08,71.46-2.44,56.36,7.4,33,22.6,28.58,54.94,46.38,76.3a43.06,43.06,0,0,0,5.89,5.88c4.93,4,15,7.46,18.19-.73C73.84,72.63,62,69.51,56,73c-2.32,1.33-4,3.34-5.82,5.26L.85,130.71c-2.68,2.85,1.61,7.15,4.29,4.29Z"/></g></g></svg>