<svg xmlns="http://www.w3.org/2000/svg" viewBox="0 0 134.35 80.87"><title>Icone voltar</title><g id="Camada_2" data-name="Camada 2"><g id="Camada_1-2" data-name="Camada 1"><path d="M20.1,25.45,46.86,8.24c1.32-.85,2.61-1.79,4-2.56,4.37-2.45,8.81-.21,9.43,4.75.36,2.84,0,5.95,0,8.81l.09,39.28c0,3.77.23,7.61,0,11.38-.34,6.47-6,7.54-10.57,4.49-9.72-6.44-19.18-13.33-28.75-20L7.76,45.14C6.12,44,2.9,41.91,6.52,40.81c2.18-.67,5.65,0,7.91,0l14.49,0,39,.12,64.19.19c3,0,3-4.66,0-4.67L67.9,36.32,25.08,36.2c-6.41,0-13.65-1-20,0s-6.49,7.94-2,11.31c3.84,2.9,7.94,5.52,11.89,8.27C25.79,63.33,36.54,71,47.48,78.41c4.79,3.24,10.88,3.66,15-1,2.86-3.26,2.57-7.3,2.56-11.29L65,24c0-4.48.26-9.06,0-13.53C64.39,2,56-2.63,48.63,1.57,38,7.61,28,14.83,17.75,21.43c-2.52,1.62-.18,5.65,2.35,4Z"/></g></g></svg>