<svg xmlns="http://www.w3.org/2000/svg" viewBox="0 0 135.53 134.77"><title>Icone coração</title><g id="Camada_2" data-name="Camada 2"><g id="Camada_1-2" data-name="Camada 1"><path d="M63.09,134.55c26.73-11.34,52.67-33.35,65-59.81,6.09-13.1,9.5-27.35,6.13-41.55-3.67-15.47-13.95-28.47-30.52-30.41C91.12,1.31,76.4,5.13,67.72,14.7A31.39,31.39,0,0,0,60,39.44c.48,3.43,1.89,7.55,5.38,9,4.3,1.72,9.48-.86,11.42-4.86,2-4.19.81-10.24-.14-14.58C75.1,21.74,71.79,14.72,66.46,9.52,56.24-.44,40.65-2.14,27.57,2.35,8,9.06-1.74,27.57.26,47.8,2.82,73.67,19.55,97.93,38,115.35a106.67,106.67,0,0,0,12.53,10.2c2.65,1.83,5.15-2.5,2.52-4.32-18.38-12.73-33.84-32.36-42.38-53C3.13,50,1,24.8,19.28,12A37.76,37.76,0,0,1,50.6,6.21C64.16,9.88,71.52,22.29,72.68,35.67a19.3,19.3,0,0,1,.15,3.22c-.3,3.45-4.46,7.38-6.94,3.24a10.45,10.45,0,0,1-1.06-4.24A26.37,26.37,0,0,1,75,14.8c8.76-6.63,21.65-9,32.16-6.35,13.32,3.33,20.21,15.6,22.71,28.23,2.47,12.44-1.19,25.37-6.6,36.6-12.18,25.28-37,46-62.68,56.95-3,1.25-.41,5.56,2.52,4.32Z"/></g></g></svg>