<svg xmlns="http://www.w3.org/2000/svg" viewBox="0 0 331.78 474.89"><title>Logo My Reads</title><g id="Camada_2" data-name="Camada 2"><g id="Camada_1-2" data-name="Camada 1"><path d="M331.66,55.46c0-9.07.27-18.18,0-27.25C331.2,12.34,318.81.38,303,.18c-11.89-.14-23.78,0-35.67,0H54.82c-13.07,0-28-1.81-39.31,6C5.42,13.06.09,24.15,0,36.24c0,3.17,0,6.34,0,9.5V428C0,441.74-.07,455,11.22,465.44c12,11.06,27.43,9.35,42.36,9.35h211c10.65,0,21.33.23,32,0a35.54,35.54,0,0,0,35.1-33.6c.13-2.48,0-5,0-7.47V122.07c0-2.27.06-4.55,0-6.82a35.55,35.55,0,0,0-35-35c-35.38-.8-70.87,0-106.25,0H65.52c-1.07,0-2.17.06-3.24,0s-.6.15-2-.67c-3.54-2-5.36-5.55-6.77-9.23-.09-.22-.63-2.72-.37-.71a19.91,19.91,0,0,1,.23-4.42,26.93,26.93,0,0,1,1.15-5.89c.9-2.67,4-4.48,7.47-5.26,6.87-1.53,15.61-.31,16.19,8.09.84,12.33,0,25,0,37.37V243c0,4.38-.12,8.78,0,13.15.4,14.8,11.53,25.77,26.29,26.13,18.42.45,36.91,0,55.34,0h66.69c10.89,0,21.31-2.51,27.32-12.78,5.39-9.18,3.53-22.15,3.53-32.36s1.29-21.2-.51-31.21c-2.51-13.92-15.08-20.86-28.19-20.86H114.37c-11,0-11.05,17.16,0,17.16H228.8c6.92,0,11.34,3.13,11.37,10.55.05,11.2,0,22.4,0,33.6,0,7.46,1.61,18.1-8.8,18.75-5.58.34-11.29,0-16.87,0H111.3c-5.62,0-13,1.08-15.45-5.57-1.22-3.26-.54-7.82-.54-11.21V81.16c0-5.7,0-11.41,0-17.11-.06-13.62-8.29-25-22.22-27.23-9.81-1.58-21.54.56-28.94,7.57C37.41,50.78,34.72,63,36.27,71.91c2.25,13,13,25.23,26.67,25.48,13,.25,25.93,0,38.89,0H294.25c7.88,0,15.31,2.82,18.76,10.59,1.67,3.75,1.5,7.58,1.5,11.54V428.3c0,3.52,0,7.05,0,10.58-.08,9.79-6.92,18.38-17.16,18.74-9.36.33-18.79,0-28.16,0H40.88c-3.9,0-7.94.3-11.68-1-13-4.39-12-17.09-12-28v-379c0-8.12-1.54-18.74,3.76-25.52,7.33-9.37,22.28-6.83,32.81-6.83h139c36.39,0,72.79-.18,109.18,0,6.78,0,12.36,3.68,12.61,11.06.3,9,0,18.06,0,27.06,0,11,17.15,11.06,17.15,0Z"/></g></g></svg>